<svg width="910" height="960" xmlns="http://www.w3.org/2000/svg" id="paletteGeneratorSvgCardExport-lc2aTTRWV0l"><defs><filter id="Rectangle_3567" x="-34" y="74" width="884" height="1010" filterUnits="userSpaceOnUse"><feOffset dy="29"/><feGaussianBlur stdDeviation="30" result="blur"/><feFlood flood-opacity="0.078"/><feComposite operator="in" in2="blur"/><feComposite in="SourceGraphic"/></filter><linearGradient id="linear-gradient-0" x2="1" y2="1" gradientUnits="objectBoundingBox"><stop offset="0" stop-color="rgb(191 , 216 , 52)"/><stop offset="1" stop-color="rgb(114 , 204 , 80)"/></linearGradient><linearGradient id="linear-gradient-1" x2="1" y2="1" gradientUnits="objectBoundingBox"><stop offset="0" stop-color="rgb(114 , 204 , 80)"/><stop offset="1" stop-color="rgb(1 , 152 , 117)"/></linearGradient><linearGradient id="linear-gradient-2" x2="1" y2="1" gradientUnits="objectBoundingBox"><stop offset="0" stop-color="rgb(1 , 152 , 117)"/><stop offset="1" stop-color="rgb(0 , 174 , 173)"/></linearGradient><linearGradient id="linear-gradient-3" x2="1" y2="1" gradientUnits="objectBoundingBox"><stop offset="0" stop-color="rgb(0 , 174 , 173)"/><stop offset="1" stop-color="rgb(191 , 216 , 52)"/></linearGradient><clipPath id="clip-Dopely_Colors_-_Exported_Image_-_Color_Palette"><rect width="1080" height="960"/></clipPath></defs><rect x="0" y="0" fill="rgb(255 , 255 , 255)" width="910" height="960"/><rect filter="url(#Rectangle_3567)" id="Rectangle_3567-3" data-name="Rectangle 3567" width="804" height="691" rx="30" transform="translate(56 135)" fill="rgb(255 , 255 , 255)"/><rect id="Rectangle_470-2" data-name="Rectangle 470" width="125" height="275" rx="62.517" transform="translate(184 182.517)" fill="rgb(191 , 216 , 52)"/><rect id="Rectangle_471-2" data-name="Rectangle 471" width="125" height="275" rx="62.517" transform="translate(329 182.517)" fill="rgb(114 , 204 , 80)"/><rect id="Rectangle_472-2" data-name="Rectangle 472" width="125" height="275" rx="62.517" transform="translate(474 182.517)" fill="rgb(1 , 152 , 117)"/><rect id="Rectangle_473-2" data-name="Rectangle 473" width="125" height="275" rx="62.517" transform="translate(619 182.517)" fill="rgb(0 , 174 , 173)"/><text id="_7109B6-2" data-name="rgb(191 , 216 , 52)" transform="translate(220 499.221)" fill="rgb(191 , 216 , 52)" font-size="18" font-family="Gilroy-ExtraBold, Gilroy" font-weight="800">#BFD834</text><text id="_7109B6-2" data-name="rgb(114 , 204 , 80)" transform="translate(365 499.221)" fill="rgb(114 , 204 , 80)" font-size="18" font-family="Gilroy-ExtraBold, Gilroy" font-weight="800">#72CC50</text><text id="_7109B6-2" data-name="rgb(1 , 152 , 117)" transform="translate(510 499.221)" fill="rgb(1 , 152 , 117)" font-size="18" font-family="Gilroy-ExtraBold, Gilroy" font-weight="800">#019875</text><text id="_7109B6-2" data-name="rgb(0 , 174 , 173)" transform="translate(655 499.221)" fill="rgb(0 , 174 , 173)" font-size="18" font-family="Gilroy-ExtraBold, Gilroy" font-weight="800">#00AEAD</text><path id="Path_380-2" data-name="Path 380" d="M62.517,0A62.517,62.517,0,1,1,0,62.517,62.517,62.517,0,0,1,62.517,0Z" transform="translate(184 530.114)" fill="url(#linear-gradient-0)"/><path id="Path_381-2" data-name="Path 381" d="M62.517,0A62.517,62.517,0,1,1,0,62.517,62.517,62.517,0,0,1,62.517,0Z" transform="translate(329 530.114)" fill="url(#linear-gradient-1)"/><path id="Path_382-2" data-name="Path 382" d="M62.517,0A62.517,62.517,0,1,1,0,62.517,62.517,62.517,0,0,1,62.517,0Z" transform="translate(474 530.114)" fill="url(#linear-gradient-2)"/><path id="Path_383-2" data-name="Path 383" d="M62.517,0A62.517,62.517,0,1,1,0,62.517,62.517,62.517,0,0,1,62.517,0Z" transform="translate(619 530.114)" fill="url(#linear-gradient-3)"/><path id="dopelyLogo" data-name="Path 6003" d="M-57.255-16.734h-8.217V3.381h8.217A9.839,9.839,0,0,0-47.276-6.677,9.839,9.839,0,0,0-57.255-16.734Zm0,15.689h-3.522V-12.309h3.522c3.228,0,5.459,2.184,5.459,5.632S-54.026-1.044-57.255-1.044Zm22.422,4.827A10.483,10.483,0,0,0-24.15-6.677a10.483,10.483,0,0,0-10.683-10.46A10.483,10.483,0,0,0-45.515-6.677,10.483,10.483,0,0,0-34.833,3.783Zm0-4.483A5.782,5.782,0,0,1-40.82-6.677a5.782,5.782,0,0,1,5.987-5.977,5.782,5.782,0,0,1,5.987,5.977A5.782,5.782,0,0,1-34.833-.7Zm21.1-16.034h-7.777V3.381h4.7V-2.941h3.082a6.99,6.99,0,0,0,7.19-6.9A6.99,6.99,0,0,0-13.732-16.734Zm0,9.483h-3.082v-5.172h3.082a2.482,2.482,0,0,1,2.495,2.586A2.482,2.482,0,0,1-13.732-7.251ZM.5-1.044V-4.608H7.839V-8.975H.5v-3.333H8.573v-4.425H-4.193V3.381H8.72V-1.044Zm15.554,0V-16.734h-4.7V3.381H23.394V-1.044ZM39.535-16.734H34.194l-3.9,7.758-3.9-7.758H21.046l6.9,12.385v7.73h4.7v-7.73Zm.587,20.517a2.777,2.777,0,0,0,2.788-2.73,2.789,2.789,0,0,0-5.576,0A2.777,2.777,0,0,0,40.122,3.783ZM56.85-16.734H41.589v4.425h5.283V3.381h4.7V-12.309H56.85ZM67.533,3.783A10.483,10.483,0,0,0,78.216-6.677a10.483,10.483,0,0,0-10.683-10.46A10.483,10.483,0,0,0,56.85-6.677,10.483,10.483,0,0,0,67.533,3.783Zm0-4.483a5.782,5.782,0,0,1-5.987-5.977,5.782,5.782,0,0,1,5.987-5.977A5.782,5.782,0,0,1,73.52-6.677,5.782,5.782,0,0,1,67.533-.7Zm21.1-16.034H80.857V3.381h4.7V-2.941h3.082a6.99,6.99,0,0,0,7.19-6.9A6.99,6.99,0,0,0,88.634-16.734Zm0,9.483H85.553v-5.172h3.082a2.482,2.482,0,0,1,2.495,2.586A2.482,2.482,0,0,1,88.634-7.251Z" transform="translate(175 744.805)" fill="rgb(41 38 61)"/><text id="made_with" data-name="made_with" transform="translate(110 717.221)" fill="rgb(145 156 169)" stroke="rgba(0,0,0,0)" stroke-width="1" font-size="12" font-family="Gilroy-ExtraBold, Gilroy" font-weight="800"><tspan x="0" y="0">made with</tspan></text><text id="dopely.top" data-name="https://colors.dopely.top/palette/6025c5" fill="rgb(0,0,0)" transform="translate(614 744.221)" stroke="rgba(0,0,0,0)" stroke-width="1" font-size="12" font-family="Gilroy-ExtraBold, Gilroy" font-weight="800">https://colors.dopely.top/palette-generator/lc2aTTRWV0l</text></svg>